<svg xmlns="http://www.w3.org/2000/svg" width="1608" height="640" fill="none"><mask id="a" width="1608" height="640" x="0" y="0" mask-type="alpha" maskUnits="userSpaceOnUse"><path fill="#0f1115" d="M0 640h1608V0H0v640Z"/></mask><g mask="url(#a)" fill="#0f1115"><path d="m1514.49 630.113 29.86 30.12 29.86-30.12-29.86-30.119-29.86 30.119Zm-63.81-78.499c-14.58 0-26.4 11.919-26.4 26.622s11.82 26.622 26.4 26.622c14.58 0 26.4-11.919 26.4-26.622s-11.82-26.622-26.4-26.622Zm-1191.404 4.134 51.367 51.809 51.367-51.809-51.367-51.808-51.367 51.808Zm302.415 50.176c-14.578 0-26.395 11.919-26.395 26.622s11.817 26.622 26.395 26.622 26.395-11.919 26.395-26.622-11.817-26.622-26.395-26.622Z"/><path fill-rule="evenodd" d="m115.255 723.406-77.26 24.148-152.304-401.515 77.26-24.148c11.793-3.686 24.645 2.003 28.705 12.708 2.3 6.064 1.342 12.755-2.59 18.083-15.654 21.213-9.4 49.928 13.968 64.138a53.238 53.238 0 0 0 12.452 5.513l2.634.785c24.08 7.18 37.19 30.72 29.28 52.579-1.588 4.39-3.97 8.509-7.048 12.189-15.326 18.326-11.384 44.459 8.803 58.37 4.055 2.794 8.593 4.957 13.429 6.399l5.268 1.57c24.08 7.18 37.19 30.72 29.28 52.579-1.588 4.39-3.97 8.509-7.048 12.189-15.326 18.326-11.384 44.459 8.803 58.37 4.055 2.794 8.593 4.957 13.429 6.399l2.634.785c11.85 3.533 18.3 15.117 14.408 25.873-2.204 6.093-7.423 10.898-14.103 12.986ZM1595.08 193.554s37.64-13.369 61.64 1.112c23.99 14.481 24.12 314.451-7.02 320.299-31.14 5.849-61.63-1.112-61.63-1.112-9.41-.17-16.88-7.23-16.69-15.77.1-4.837 2.7-9.35 7-12.197 17.16-11.334 20.95-33.147 8.46-48.721a36.541 36.541 0 0 0-7.24-6.841l-1.64-1.177c-15-10.763-17.55-30.527-5.69-44.145a33.557 33.557 0 0 1 8.48-6.971c16.1-9.366 20.78-28.806 10.46-43.419a32.573 32.573 0 0 0-7.68-7.698l-3.28-2.354c-15-10.763-17.55-30.527-5.69-44.145a33.54 33.54 0 0 1 8.48-6.972c16.1-9.366 20.78-28.805 10.46-43.418a32.554 32.554 0 0 0-7.68-7.698l-1.64-1.178c-7.38-5.296-8.63-15.021-2.8-21.722 3.3-3.796 8.38-5.969 13.7-5.873ZM1190.74 628.75c-2.61 0-4.73 2.138-4.73 4.776s2.12 4.776 4.73 4.776c2.62 0 4.74-2.138 4.74-4.776s-2.12-4.776-4.74-4.776Zm32.62 0c-2.61 0-4.73 2.138-4.73 4.776s2.12 4.776 4.73 4.776c2.62 0 4.74-2.138 4.74-4.776s-2.12-4.776-4.74-4.776Zm32.63 0c-2.62 0-4.74 2.138-4.74 4.776s2.12 4.776 4.74 4.776c2.61 0 4.73-2.138 4.73-4.776s-2.12-4.776-4.73-4.776Zm32.62 0c-2.62 0-4.74 2.138-4.74 4.776s2.12 4.776 4.74 4.776 4.74-2.138 4.74-4.776-2.12-4.776-4.74-4.776Zm-130.49 0c-2.62 0-4.74 2.138-4.74 4.776s2.12 4.776 4.74 4.776c2.61 0 4.73-2.138 4.73-4.776s-2.12-4.776-4.73-4.776Zm-32.63 0c-2.61 0-4.73 2.138-4.73 4.776s2.12 4.776 4.73 4.776c2.62 0 4.74-2.138 4.74-4.776s-2.12-4.776-4.74-4.776Zm-32.62 0c-2.61 0-4.73 2.138-4.73 4.776s2.12 4.776 4.73 4.776c2.62 0 4.74-2.138 4.74-4.776s-2.12-4.776-4.74-4.776Zm97.87-32.904c-2.61 0-4.73 2.138-4.73 4.776s2.12 4.777 4.73 4.777c2.62 0 4.74-2.139 4.74-4.777 0-2.638-2.12-4.776-4.74-4.776Zm32.62 0c-2.61 0-4.73 2.138-4.73 4.776s2.12 4.777 4.73 4.777c2.62 0 4.74-2.139 4.74-4.777 0-2.638-2.12-4.776-4.74-4.776Zm32.63 0c-2.62 0-4.74 2.138-4.74 4.776s2.12 4.777 4.74 4.777c2.61 0 4.73-2.139 4.73-4.777 0-2.638-2.12-4.776-4.73-4.776Zm32.62 0c-2.62 0-4.74 2.138-4.74 4.776s2.12 4.777 4.74 4.777 4.74-2.139 4.74-4.777c0-2.638-2.12-4.776-4.74-4.776Zm-130.49 0c-2.62 0-4.74 2.138-4.74 4.776s2.12 4.777 4.74 4.777c2.61 0 4.73-2.139 4.73-4.777 0-2.638-2.12-4.776-4.73-4.776Zm-32.63 0c-2.61 0-4.73 2.138-4.73 4.776s2.12 4.777 4.73 4.777c2.62 0 4.74-2.139 4.74-4.777 0-2.638-2.12-4.776-4.74-4.776Zm-32.62 0c-2.61 0-4.73 2.138-4.73 4.776s2.12 4.777 4.73 4.777c2.62 0 4.74-2.139 4.74-4.777 0-2.638-2.12-4.776-4.74-4.776Zm97.87-32.904c-2.61 0-4.73 2.139-4.73 4.777 0 2.638 2.12 4.776 4.73 4.776 2.62 0 4.74-2.138 4.74-4.776s-2.12-4.777-4.74-4.777Zm32.62 0c-2.61 0-4.73 2.139-4.73 4.777 0 2.638 2.12 4.776 4.73 4.776 2.62 0 4.74-2.138 4.74-4.776s-2.12-4.777-4.74-4.777Zm32.63 0c-2.62 0-4.74 2.139-4.74 4.777 0 2.638 2.12 4.776 4.74 4.776 2.61 0 4.73-2.138 4.73-4.776s-2.12-4.777-4.73-4.777Zm32.62 0c-2.62 0-4.74 2.139-4.74 4.777 0 2.638 2.12 4.776 4.74 4.776s4.74-2.138 4.74-4.776-2.12-4.777-4.74-4.777Zm-130.49 0c-2.62 0-4.74 2.139-4.74 4.777 0 2.638 2.12 4.776 4.74 4.776 2.61 0 4.73-2.138 4.73-4.776s-2.12-4.777-4.73-4.777Zm-32.63 0c-2.61 0-4.73 2.139-4.73 4.777 0 2.638 2.12 4.776 4.73 4.776 2.62 0 4.74-2.138 4.74-4.776s-2.12-4.777-4.74-4.777Zm-32.62 0c-2.61 0-4.73 2.139-4.73 4.777 0 2.638 2.12 4.776 4.73 4.776 2.62 0 4.74-2.138 4.74-4.776s-2.12-4.777-4.74-4.777ZM11.05 247.086c-2.616 0-4.736 2.139-4.736 4.777 0 2.637 2.12 4.776 4.736 4.776 2.615 0 4.735-2.139 4.735-4.776 0-2.638-2.12-4.777-4.735-4.777Zm32.623 0c-2.616 0-4.736 2.139-4.736 4.777 0 2.637 2.12 4.776 4.736 4.776 2.615 0 4.735-2.139 4.735-4.776 0-2.638-2.12-4.777-4.735-4.777Zm32.622 0c-2.615 0-4.735 2.139-4.735 4.777 0 2.637 2.12 4.776 4.735 4.776 2.616 0 4.736-2.139 4.736-4.776 0-2.638-2.12-4.777-4.736-4.777ZM11.05 214.183c-2.616 0-4.736 2.138-4.736 4.776s2.12 4.776 4.736 4.776c2.615 0 4.735-2.138 4.735-4.776s-2.12-4.776-4.735-4.776Zm32.623 0c-2.616 0-4.736 2.138-4.736 4.776s2.12 4.776 4.736 4.776c2.615 0 4.735-2.138 4.735-4.776s-2.12-4.776-4.735-4.776Zm32.622 0c-2.615 0-4.735 2.138-4.735 4.776s2.12 4.776 4.735 4.776c2.616 0 4.736-2.138 4.736-4.776s-2.12-4.776-4.736-4.776ZM11.05 181.279c-2.616 0-4.736 2.138-4.736 4.776s2.12 4.777 4.736 4.777c2.615 0 4.735-2.139 4.735-4.777 0-2.638-2.12-4.776-4.735-4.776Zm32.623 0c-2.616 0-4.736 2.138-4.736 4.776s2.12 4.777 4.736 4.777c2.615 0 4.735-2.139 4.735-4.777 0-2.638-2.12-4.776-4.735-4.776Zm32.622 0c-2.615 0-4.735 2.138-4.735 4.776s2.12 4.777 4.735 4.777c2.616 0 4.736-2.139 4.736-4.777 0-2.638-2.12-4.776-4.736-4.776ZM11.05 148.375c-2.616 0-4.736 2.139-4.736 4.777 0 2.638 2.12 4.776 4.736 4.776 2.615 0 4.735-2.138 4.735-4.776s-2.12-4.777-4.735-4.777Zm32.623 0c-2.616 0-4.736 2.139-4.736 4.777 0 2.638 2.12 4.776 4.736 4.776 2.615 0 4.735-2.138 4.735-4.776s-2.12-4.777-4.735-4.777Zm32.622 0c-2.615 0-4.735 2.139-4.735 4.777 0 2.638 2.12 4.776 4.735 4.776 2.616 0 4.736-2.138 4.736-4.776s-2.12-4.777-4.736-4.777ZM11.05 115.472c-2.616 0-4.736 2.138-4.736 4.776s2.12 4.776 4.736 4.776c2.615 0 4.735-2.138 4.735-4.776s-2.12-4.776-4.735-4.776Zm32.623 0c-2.616 0-4.736 2.138-4.736 4.776s2.12 4.776 4.736 4.776c2.615 0 4.735-2.138 4.735-4.776s-2.12-4.776-4.735-4.776Zm32.622 0c-2.615 0-4.735 2.138-4.735 4.776s2.12 4.776 4.735 4.776c2.616 0 4.736-2.138 4.736-4.776s-2.12-4.776-4.736-4.776ZM11.05 82.568c-2.616 0-4.736 2.139-4.736 4.776 0 2.638 2.12 4.777 4.736 4.777 2.615 0 4.735-2.139 4.735-4.777 0-2.637-2.12-4.776-4.735-4.776Zm32.623 0c-2.616 0-4.736 2.139-4.736 4.776 0 2.638 2.12 4.777 4.736 4.777 2.615 0 4.735-2.139 4.735-4.777 0-2.637-2.12-4.776-4.735-4.776Zm32.622 0c-2.615 0-4.735 2.139-4.735 4.776 0 2.638 2.12 4.777 4.735 4.777 2.616 0 4.736-2.139 4.736-4.777 0-2.637-2.12-4.776-4.736-4.776ZM11.05 49.665c-2.616 0-4.736 2.138-4.736 4.776s2.12 4.776 4.736 4.776c2.615 0 4.735-2.138 4.735-4.776s-2.12-4.776-4.735-4.776Zm32.623 0c-2.616 0-4.736 2.138-4.736 4.776s2.12 4.776 4.736 4.776c2.615 0 4.735-2.138 4.735-4.776s-2.12-4.776-4.735-4.776Zm32.622 0c-2.615 0-4.735 2.138-4.735 4.776s2.12 4.776 4.735 4.776c2.616 0 4.736-2.138 4.736-4.776s-2.12-4.776-4.736-4.776Z" clip-rule="evenodd"/></g></svg>